<svg width="68" height="67" viewBox="0 0 68 67" fill="none" xmlns="http://www.w3.org/2000/svg">
<path d="M45.1761 33.7364C45.1761 32.8413 45.0444 31.8671 44.7812 30.814H48.0984V46.7686C48.0984 47.1898 47.9536 47.5321 47.664 47.7953C47.3744 48.0586 47.019 48.1903 46.5978 48.1903H20.6124C20.1912 48.1903 19.8489 48.0586 19.5856 47.7953C19.3224 47.5321 19.1907 47.1898 19.1907 46.7686V30.814H22.429C22.1657 31.8671 22.0341 32.8413 22.0341 33.7364C22.0341 35.3161 22.3369 36.8167 22.9424 38.2384C23.5479 39.6601 24.3773 40.8843 25.4304 41.9111C26.4835 42.9379 27.7209 43.7541 29.1426 44.3596C30.5643 44.9651 32.0649 45.2679 33.6446 45.2679C35.2242 45.2679 36.7249 44.9651 38.1466 44.3596C39.5683 43.7541 40.7925 42.9379 41.8193 41.9111C42.8461 40.8843 43.6622 39.6601 44.2678 38.2384C44.8733 36.8167 45.1761 35.3161 45.1761 33.7364ZM33.6446 40.9238C32.6441 40.9238 31.6963 40.7395 30.8012 40.371C29.9061 40.0024 29.1294 39.489 28.4712 38.8308C27.813 38.1726 27.2996 37.4091 26.931 36.5403C26.5625 35.6715 26.3782 34.7369 26.3782 33.7364C26.3782 32.736 26.5625 31.7882 26.931 30.893C27.2996 29.9979 27.813 29.2212 28.4712 28.563C29.1294 27.9048 29.9061 27.3914 30.8012 27.0229C31.6963 26.6543 32.6441 26.47 33.6446 26.47C34.645 26.47 35.5797 26.6543 36.4485 27.0229C37.3173 27.3914 38.0808 27.9048 38.739 28.563C39.3972 29.2212 39.9106 29.9979 40.2791 30.893C40.6477 31.7882 40.832 32.736 40.832 33.7364C40.832 34.7369 40.6477 35.6715 40.2791 36.5403C39.9106 37.4091 39.3972 38.1726 38.739 38.8308C38.0808 39.489 37.3173 40.0024 36.4485 40.371C35.5797 40.7395 34.645 40.9238 33.6446 40.9238ZM46.5978 19.2825C47.019 19.2825 47.3744 19.4142 47.664 19.6774C47.9536 19.9407 48.0984 20.283 48.0984 20.7042V25.0483C48.0984 25.4695 47.9536 25.8118 47.664 26.0751C47.3744 26.3383 47.019 26.47 46.5978 26.47H42.2537C41.8325 26.47 41.4902 26.3383 41.2269 26.0751C40.9637 25.8118 40.832 25.4695 40.832 25.0483V20.7042C40.832 20.283 40.9637 19.9407 41.2269 19.6774C41.4902 19.4142 41.8325 19.2825 42.2537 19.2825H46.5978ZM50.4679 0.642578C52.7321 0.642578 54.8778 1.07698 56.905 1.9458C58.9323 2.81461 60.6962 3.99935 62.1969 5.50002C63.6976 7.0007 64.8823 8.75149 65.7511 10.7524C66.6199 12.7533 67.0543 14.8858 67.0543 17.15V50.1648C67.0543 52.429 66.6199 54.5747 65.7511 56.6019C64.8823 58.6292 63.6976 60.3931 62.1969 61.8938C60.6962 63.3945 58.9323 64.5792 56.905 65.448C54.8778 66.3168 52.7321 66.7512 50.4679 66.7512H17.4531C15.1889 66.7512 13.0564 66.3168 11.0555 65.448C9.05459 64.5792 7.3038 63.3945 5.80312 61.8938C4.30245 60.3931 3.11771 58.6292 2.2489 56.6019C1.38008 54.5747 0.945679 52.429 0.945679 50.1648V17.15C0.945679 14.8858 1.38008 12.7533 2.2489 10.7524C3.11771 8.75149 4.30245 7.0007 5.80312 5.50002C7.3038 3.99935 9.05459 2.81461 11.0555 1.9458C13.0564 1.07698 15.1889 0.642578 17.4531 0.642578H50.4679ZM52.4425 19.2825C52.4425 18.0715 52.0213 17.0447 51.1788 16.2022C50.3363 15.3597 49.3095 14.9385 48.0984 14.9385H19.1907C17.9797 14.9385 16.9529 15.3597 16.1104 16.2022C15.2679 17.0447 14.8467 18.0715 14.8467 19.2825V48.1903C14.8467 49.4013 15.2679 50.4281 16.1104 51.2706C16.9529 52.1131 17.9797 52.5343 19.1907 52.5343H48.0984C49.3095 52.5343 50.3363 52.1131 51.1788 51.2706C52.0213 50.4281 52.4425 49.4013 52.4425 48.1903V19.2825Z" fill="red"/>
</svg>
