<svg width="67" height="67" viewBox="0 0 67 67" fill="none" xmlns="http://www.w3.org/2000/svg">
<path d="M49.6012 0C51.8654 0 53.998 0.434406 55.9989 1.30322C57.9998 2.17203 59.7505 3.35677 61.2512 4.85745C62.7519 6.35812 63.9366 8.10891 64.8054 10.1098C65.6743 12.1107 66.1087 14.2432 66.1087 16.5074V49.5223C66.1087 51.7864 65.6743 53.9321 64.8054 55.9594C63.9366 57.9866 62.7519 59.7505 61.2512 61.2512C59.7505 62.7519 57.9998 63.9366 55.9989 64.8054C53.998 65.6743 51.8654 66.1087 49.6012 66.1087H16.5074C14.2432 66.1087 12.1107 65.6743 10.1098 64.8054C8.10891 63.9366 6.35812 62.7519 4.85745 61.2512C3.35677 59.7505 2.17203 57.9866 1.30322 55.9594C0.434406 53.9321 0 51.7864 0 49.5223V16.5074C0 14.2432 0.434406 12.1107 1.30322 10.1098C2.17203 8.10891 3.35677 6.35812 4.85745 4.85745C6.35812 3.35677 8.10891 2.17203 10.1098 1.30322C12.1107 0.434406 14.2432 0 16.5074 0H49.6012ZM22.7471 24.8006H14.4539V51.6548H22.7471V24.8006ZM18.64 22.6681C19.7457 22.6681 20.7067 22.2732 21.5228 21.4833C22.339 20.6935 22.7471 19.7194 22.7471 18.561C22.7471 17.4026 22.339 16.4284 21.5228 15.6386C20.7067 14.8488 19.7457 14.4539 18.64 14.4539C17.4815 14.4539 16.4943 14.8488 15.6781 15.6386C14.8619 16.4284 14.4539 17.4026 14.4539 18.561C14.4539 19.7194 14.8619 20.6935 15.6781 21.4833C16.4943 22.2732 17.4815 22.6681 18.64 22.6681ZM51.6548 36.0952C51.6548 34.1996 51.1282 32.3435 50.0751 30.5269C49.022 28.7103 47.653 27.3281 45.968 26.3803C44.441 25.5378 42.6639 25.0902 40.6367 25.0376C38.6095 24.9849 36.7797 25.3272 35.1474 26.0643V24.8006H26.8542V51.6548H35.1474V35.2264L38.5436 33.5677C38.9649 33.3571 39.5441 33.2518 40.2813 33.2518C41.0184 33.2518 41.5713 33.3834 41.9399 33.6467C42.2558 33.8047 42.5718 34.1469 42.8877 34.6735C43.2036 35.2 43.3616 35.6739 43.3616 36.0952V51.6548H51.6548V36.0952Z" fill="#CECECE"/>
</svg>
